# xmcd
#
# Track frame offsets:
#	150
#	18831
#	36648
#	57675
#	73539
#	87060
#	105176
#	121485
#	139041
#	153291
#	170925
#	186615
#	202548
#	220512
#	241161
#	258681
#	276558
#	292626
#	313893
#	332079
#
# Disc length: 4648 seconds
#
# Revision: 2
# Processed by: cddbd v1.5.2PL0 Copyright (c) Steve Scherf et al.
# Submitted via: audiograbber 1.83.01
#
DISCID=29122614
DTITLE=Star Academy 1 - Le Live
DYEAR=2002
DGENRE=Télé Réalité
TTITLE0=01 - Star Académy 1 - La musique
TTITLE1=02 - François, Grégory - Sex bomb
TTITLE2=03 - Jean-Pascal, Jénifer, Mario, Jessica, Patrice, Olivia - Paroles, P
TTITLE2=aroles
TTITLE3=04 - Jean-Pascal - Brigitte Bardot
TTITLE4=05 - Olivia - J'envoie valser
TTITLE5=06 - Star Académy 1 - Fame
TTITLE6=07 - Mario, Grégory, Patrice, François, Jessica, Djalil - Les rois du m
TTITLE6=onde
TTITLE7=08 - Olivia, Jenifer, Carine - Gimme, gimme, gimme
TTITLE8=09 - Olivia - Paris
TTITLE9=10 - Star Académy 1 - Sur la route
TTITLE10=11 - Jessica - Si fragiles
TTITLE11=12 - Olivia, Jenifer, Carine - Lady marmelade
TTITLE12=13 - Carine - Quand on a que l'amour
TTITLE13=14 - Mario - On se ressemble
TTITLE14=15 - Olivia, Jessica, Carine, Jenifer - Salma ya salama
TTITLE15=16 - Jenifer, Mario - Je garde
TTITLE16=17 - Jean-Pascal - L'agitateur
TTITLE17=18 - Star Académy 1 - Place des grands hommes
TTITLE18=19 - Jenifer - J'attends l'amour
TTITLE19=20 - Star Académy 1 - La musique (Rappel)
EXTD=
EXTT0=
EXTT1=
EXTT2=
EXTT3=
EXTT4=
EXTT5=
EXTT6=
EXTT7=
EXTT8=
EXTT9=
EXTT10=
EXTT11=
EXTT12=
EXTT13=
EXTT14=
EXTT15=
EXTT16=
EXTT17=
EXTT18=
EXTT19=
PLAYORDER=
